<?xml version="1.0" standalone="no"?>
<!DOCTYPE svg PUBLIC "-//W3C//DTD SVG 20010904//EN"
 "http://www.w3.org/TR/2001/REC-SVG-20010904/DTD/svg10.dtd">
<svg version="1.0" xmlns="http://www.w3.org/2000/svg"
 width="512.000000pt" height="512.000000pt" viewBox="0 0 512.000000 512.000000"
 preserveAspectRatio="xMidYMid meet">

<g transform="translate(0.000000,512.000000) scale(0.100000,-0.100000)"
fill="#000000" stroke="none">
<path d="M730 5110 c-14 -5 -45 -14 -70 -20 -307 -81 -549 -323 -630 -630 -6
-25 -16 -59 -21 -76 -12 -41 -12 -3607 0 -3648 5 -17 15 -51 21 -76 81 -307
323 -549 630 -630 25 -6 59 -16 76 -21 41 -12 3607 -12 3648 0 17 5 51 15 76
21 307 81 549 323 630 630 6 25 16 59 21 76 12 41 12 3607 0 3648 -5 17 -15
51 -21 76 -81 307 -323 549 -630 630 -25 6 -59 16 -76 21 -38 11 -3619 10
-3654 -1z m1187 -1604 c274 -63 382 -144 452 -341 30 -86 39 -228 21 -328 -31
-167 -172 -327 -367 -418 -29 -13 -53 -27 -53 -31 0 -3 13 -9 29 -13 16 -3 35
-13 42 -21 6 -8 17 -14 23 -14 35 0 117 -131 278 -448 19 -36 41 -65 53 -68
42 -13 101 -45 133 -72 l33 -28 -11 -89 c-6 -50 -13 -100 -16 -112 l-4 -23
-249 0 c-247 0 -248 0 -258 23 -6 12 -43 90 -83 172 -39 83 -75 159 -80 170
-7 17 -117 246 -184 384 -32 67 -63 81 -177 81 -79 0 -98 -3 -103 -16 -3 -9
-6 -114 -6 -235 0 -167 3 -221 13 -223 6 -3 39 -12 72 -22 64 -18 170 -67 179
-83 3 -5 -1 -60 -9 -122 -8 -62 -15 -116 -15 -121 0 -4 -179 -8 -398 -8 l-399
0 -11 82 c-24 167 -18 181 85 229 l53 24 0 676 0 677 -53 26 c-29 14 -64 37
-77 51 -23 25 -23 25 -11 137 7 61 15 116 18 121 3 5 203 7 507 4 418 -4 513
-7 573 -21z m1850 0 c226 -52 329 -111 407 -231 92 -142 104 -429 25 -577 -49
-92 -167 -196 -302 -267 -59 -30 -68 -47 -35 -61 105 -48 141 -96 292 -398
l66 -132 58 -27 c31 -15 74 -38 96 -52 l38 -25 -6 -61 c-3 -33 -8 -86 -12
-117 l-6 -58 -252 0 -251 1 -42 87 c-23 48 -52 110 -64 137 -12 28 -45 100
-74 160 -29 61 -63 133 -75 160 -31 72 -99 206 -121 236 -28 40 -65 50 -165
47 l-89 -3 -3 -236 -2 -236 57 -12 c66 -14 181 -69 197 -94 11 -18 -8 -225
-22 -239 -5 -5 -186 -7 -402 -6 l-395 3 -14 118 -14 117 29 25 c16 14 53 37
82 51 l52 25 0 675 0 674 -27 10 c-44 16 -70 31 -104 60 l-32 26 12 100 c7 54
14 110 17 123 l5 23 502 -5 c419 -4 514 -7 574 -21z"/>
<path d="M1395 3197 c-3 -7 -4 -129 -3 -272 l3 -260 150 -3 c159 -3 232 7 295
41 86 47 112 100 112 230 0 50 -5 94 -11 100 -6 6 -11 18 -11 27 0 17 -70 86
-108 108 -48 27 -148 42 -285 42 -102 0 -139 -3 -142 -13z"/>
<path d="M3250 2936 l0 -276 162 0 c157 0 190 5 266 37 97 42 139 129 128 263
-7 92 -21 122 -77 171 -62 56 -126 71 -316 76 l-163 5 0 -276z"/>
</g>
</svg>
